<?xml version="1.0" encoding="UTF-8"?>
<svg xmlns="http://www.w3.org/2000/svg" xmlns:xlink="http://www.w3.org/1999/xlink" width="4000pt" height="4000pt" viewBox="0 0 4000 4000" version="1.1">
<g id="surface1">
<rect x="0" y="0" width="4000" height="4000" style="fill:rgb(62.693787%,62.693787%,62.693787%);fill-opacity:1;stroke:none;"/>
<path style=" stroke:none;fill-rule:nonzero;fill:rgb(100%,100%,100%);fill-opacity:1;" d="M 2820.078125 1444.980469 C 2820.078125 1897.890625 2452.910156 2265.050781 2000 2265.050781 C 1547.078125 2265.050781 1179.921875 1897.890625 1179.921875 1444.980469 C 1179.921875 992.058594 1547.078125 624.898438 2000 624.898438 C 2452.910156 624.898438 2820.078125 992.058594 2820.078125 1444.980469 "/>
<path style=" stroke:none;fill-rule:nonzero;fill:rgb(100%,100%,100%);fill-opacity:1;" d="M 2506.96875 2346.929688 C 2502.378906 2348.710938 2497.761719 2350.46875 2493.128906 2352.210938 C 2355.878906 2455.660156 2185.109375 2517 2000 2517 C 1814.890625 2517 1644.121094 2455.660156 1506.871094 2352.21875 C 1502.238281 2350.480469 1497.621094 2348.710938 1493.03125 2346.929688 C 785.722656 2563.578125 271.386719 3221.71875 271.386719 4000 L 3728.609375 4000 C 3728.609375 3221.71875 3214.28125 2563.578125 2506.96875 2346.929688 "/>
</g>
</svg>
